<svg width="49" height="48" viewBox="0 0 49 48" fill="none" xmlns="http://www.w3.org/2000/svg">
<path d="M41.6429 10.2857L34.7857 3.42857L27.9286 10.2857L30.3457 12.72L33.0714 9.99429V27.4286H36.5V9.99429L39.2086 12.7029L41.6429 10.2857ZM18.6543 35.28L15.9286 38.0057V20.5714H12.5V38.0057L9.79143 35.2971L7.35714 37.7143L14.2143 44.5714L21.0714 37.7143L18.6543 35.28ZM0.5 0H3.92857V48H0.5V0ZM45.0714 0H48.5V48H45.0714V36V24V0ZM22.7857 0H26.2143V6.85714H22.7857V0ZM22.7857 13.7143H26.2143V20.5714H22.7857V13.7143ZM22.7857 27.4286H26.2143V34.2857H22.7857V27.4286ZM22.7857 41.1429H26.2143V48H22.7857V41.1429Z" fill="#2F4C95"/>
</svg>
