<svg width="49" height="48" viewBox="0 0 49 48" fill="none" xmlns="http://www.w3.org/2000/svg">
<path d="M26.8229 8.00766C26.8229 7.30055 26.9861 6.6224 27.2764 6.1224C27.5668 5.6224 27.9606 5.3415 28.3713 5.3415H46.9516C47.3623 5.3415 47.7561 5.6224 48.0465 6.1224C48.3369 6.6224 48.5 7.30055 48.5 8.00766C48.5 8.71476 48.3369 9.39291 48.0465 9.89291C47.7561 10.3929 47.3623 10.6738 46.9516 10.6738H28.3713C27.9606 10.6738 27.5668 10.3929 27.2764 9.89291C26.9861 9.39291 26.8229 8.71476 26.8229 8.00766ZM46.9516 21.3384H28.3713C27.9606 21.3384 27.5668 21.6193 27.2764 22.1193C26.9861 22.6193 26.8229 23.2975 26.8229 24.0046C26.8229 24.7117 26.9861 25.3899 27.2764 25.8899C27.5668 26.3899 27.9606 26.6707 28.3713 26.6707H46.9516C47.3623 26.6707 47.7561 26.3899 48.0465 25.8899C48.3369 25.3899 48.5 24.7117 48.5 24.0046C48.5 23.2975 48.3369 22.6193 48.0465 22.1193C47.7561 21.6193 47.3623 21.3384 46.9516 21.3384ZM46.9516 37.3354H33.0164C32.6057 37.3354 32.2119 37.6163 31.9215 38.1163C31.6311 38.6163 31.468 39.2944 31.468 40.0015C31.468 40.7086 31.6311 41.3868 31.9215 41.8868C32.2119 42.3868 32.6057 42.6677 33.0164 42.6677H46.9516C47.3623 42.6677 47.7561 42.3868 48.0465 41.8868C48.3369 41.3868 48.5 40.7086 48.5 40.0015C48.5 39.2944 48.3369 38.6163 48.0465 38.1163C47.7561 37.6163 47.3623 37.3354 46.9516 37.3354ZM20.105 28.6704C21.6417 26.6323 22.7693 23.8171 23.3299 20.6196C23.8904 17.4222 23.8556 14.0028 23.2305 10.8411C22.6053 7.67934 21.4211 4.93384 19.8439 2.98963C18.2667 1.04542 16.3757 0 14.436 0C12.4964 0 10.6053 1.04542 9.02817 2.98963C7.45099 4.93384 6.26679 7.67934 5.64162 10.8411C5.01646 14.0028 4.9817 17.4222 5.54222 20.6196C6.10273 23.8171 7.23041 26.6323 8.7671 28.6704C4.77619 31.5798 1.63109 37.4354 0.549167 44.6673C0.490074 45.0614 0.484164 45.4736 0.531892 45.8722C0.57962 46.2708 0.679718 46.6453 0.824513 46.9671C0.969309 47.2888 1.15496 47.5491 1.36723 47.7282C1.57951 47.9072 1.81277 48.0002 2.04914 48H26.8229C27.0593 48.0002 27.2926 47.9072 27.5048 47.7282C27.7171 47.5491 27.9028 47.2888 28.0476 46.9671C28.1924 46.6453 28.2925 46.2708 28.3402 45.8722C28.3879 45.4736 28.382 45.0614 28.3229 44.6673C27.241 37.432 24.0959 31.5765 20.105 28.6704Z" fill="#2B508A"/>
</svg>
