<svg width="49" height="48" viewBox="0 0 49 48" fill="none" xmlns="http://www.w3.org/2000/svg">
<path fill-rule="evenodd" clip-rule="evenodd" d="M35.156 0.756898C35.5293 0.395393 36.0054 0.149179 36.5239 0.0495331C37.0424 -0.0501125 37.5798 0.00130692 38.068 0.19726L45.6307 3.22549C46.2829 3.48553 46.8017 3.98457 47.0736 4.6133C47.3455 5.24203 47.3483 5.94919 47.0813 6.57989L43.9916 13.8827C43.7919 14.3542 43.452 14.758 43.0146 15.0429C42.5773 15.3279 42.0622 15.4811 41.5347 15.4833C41.0071 15.4856 40.4907 15.3366 40.0509 15.0553C39.611 14.7741 39.2674 14.3731 39.0636 13.9033L37.844 11.0879L7.13111 23.7604C6.80893 23.8935 6.46278 23.9639 6.11242 23.9677C5.76206 23.9715 5.41434 23.9087 5.08913 23.7828C4.76392 23.6568 4.46758 23.4703 4.21703 23.2338C3.96648 22.9972 3.76663 22.7154 3.62889 22.4043C3.49115 22.0932 3.41821 21.7589 3.41425 21.4206C3.41028 21.0823 3.47536 20.7465 3.60578 20.4325C3.73619 20.1184 3.92938 19.8323 4.17433 19.5903C4.41927 19.3484 4.71116 19.1554 5.03333 19.0224L35.7853 6.33612L34.5871 3.57226C34.3821 3.10141 34.3267 2.58233 34.428 2.081C34.5293 1.57968 34.7827 1.11878 35.156 0.756898ZM44.9444 18.8164C45.8874 18.8164 46.7918 19.1781 47.4586 19.822C48.1254 20.4659 48.5 21.3392 48.5 22.2498V46.2833C48.5 46.7386 48.3127 47.1753 47.9793 47.4972C47.6459 47.8191 47.1937 48 46.7222 48H37.8333C37.3618 48 36.9096 47.8191 36.5763 47.4972C36.2429 47.1753 36.0556 46.7386 36.0556 46.2833V22.2498C36.0556 21.3392 36.4302 20.4659 37.097 19.822C37.7637 19.1781 38.6681 18.8164 39.6111 18.8164H44.9444ZM29.6804 24.969C29.0132 24.3263 28.1091 23.9657 27.1667 23.9664H21.8333C20.8903 23.9664 19.986 24.3282 19.3192 24.9721C18.6524 25.6159 18.2778 26.4892 18.2778 27.3998V46.2833C18.2778 46.7386 18.4651 47.1753 18.7985 47.4972C19.1319 47.8191 19.5841 48 20.0556 48H28.9444C29.4159 48 29.8681 47.8191 30.2015 47.4972C30.5349 47.1753 30.7222 46.7386 30.7222 46.2833V27.3998C30.7226 26.9484 30.6308 26.5013 30.452 26.0842C30.2732 25.6671 30.0111 25.2881 29.6804 24.969ZM9.38889 29.1165C10.3319 29.1165 11.2363 29.4782 11.903 30.1221C12.5698 30.766 12.9444 31.6393 12.9444 32.5499V46.2833C12.9444 46.7386 12.7571 47.1753 12.4237 47.4972C12.0903 47.8191 11.6382 48 11.1667 48H2.27778C1.80628 48 1.3541 47.8191 1.0207 47.4972C0.687301 47.1753 0.5 46.7386 0.5 46.2833V32.5499C0.5 31.6393 0.874602 30.766 1.5414 30.1221C2.20819 29.4782 3.11256 29.1165 4.05556 29.1165H9.38889Z" fill="#2B508A"/>
</svg>
