<svg width="49" height="48" viewBox="0 0 49 48" fill="none" xmlns="http://www.w3.org/2000/svg">
<path fill-rule="evenodd" clip-rule="evenodd" d="M26.3124 31.989C28.3078 30.8369 30.0518 29.2991 31.4419 27.4658C30.9919 26.7739 30.6734 26.0056 30.502 25.1991L30.4366 24.8973C30.2474 24.0365 29.8052 23.2514 29.1663 22.6419C28.5274 22.0324 27.7209 21.6262 26.8494 21.4749C19.7163 20.2404 19.7163 10.0419 26.8494 8.80396C27.6914 8.65831 28.4734 8.27432 29.1022 7.69785C29.731 7.12138 30.1799 6.37681 30.3953 5.55306C28.7179 3.73237 26.6653 2.29435 24.3781 1.33751C22.0908 0.380666 19.6229 -0.0723842 17.1434 0.00939166C14.664 0.0911675 12.2316 0.705837 10.0129 1.81129C7.79416 2.91675 5.84153 4.48687 4.28876 6.4141C2.73599 8.34132 1.61977 10.5801 1.01657 12.9771C0.413375 15.3741 0.33745 17.8726 0.793998 20.3016C1.25055 22.7305 2.22878 25.0325 3.66168 27.0497C5.09459 29.067 6.94831 30.7518 9.09585 31.989V35.9977C9.09585 36.9072 9.45855 37.7794 10.1042 38.4225C10.7498 39.0656 11.6254 39.4269 12.5385 39.4269H22.8663C23.7793 39.4269 24.655 39.0656 25.3006 38.4225C25.9462 37.7794 26.3089 36.9072 26.3089 35.9977L26.3124 31.989ZM9.09929 45.4281C9.09929 44.746 9.37132 44.0918 9.85553 43.6095C10.3397 43.1271 10.9965 42.8562 11.6813 42.8562H23.7304C24.4152 42.8562 25.0719 43.1271 25.5561 43.6095C26.0403 44.0918 26.3124 44.746 26.3124 45.4281C26.3124 46.1102 26.0403 46.7644 25.5561 47.2467C25.0719 47.729 24.4152 48 23.7304 48H11.6813C10.9965 48 10.3397 47.729 9.85553 47.2467C9.37132 46.7644 9.09929 46.1102 9.09929 45.4281ZM34.1615 5.87884C34.7915 3.01201 38.8882 2.99486 39.5423 5.85483L39.5733 5.992L39.6353 6.25948C40.0048 7.82689 40.8287 9.25154 42.0045 10.3563C43.1803 11.4611 44.6561 12.1972 46.2485 12.4732C49.2505 12.9945 49.2505 17.2879 46.2485 17.8091C44.6471 18.0868 43.1637 18.8296 41.9846 19.9442C40.8056 21.0589 39.9835 22.4957 39.6215 24.0743L39.5423 24.4241C38.8882 27.2875 34.7881 27.2703 34.1546 24.4001L34.0892 24.1017C33.7422 22.5179 32.9294 21.0729 31.7547 19.951C30.5799 18.829 29.0964 18.081 27.4932 17.8022C24.4947 17.2844 24.4947 12.9979 27.4932 12.4767C29.0908 12.1999 30.57 11.4572 31.7436 10.3425C32.9172 9.22782 33.7323 7.79133 34.0858 6.2149L34.1374 5.992L34.1615 5.87884Z" fill="#2B508A"/>
</svg>
