<svg width="49" height="48" viewBox="0 0 49 48" fill="none" xmlns="http://www.w3.org/2000/svg">
<path d="M20.7105 0L39.1476 5.472C39.6618 5.6245 40.1112 5.92916 40.4303 6.34149C40.7493 6.75383 40.9213 7.25225 40.921 7.764V12H45.9737C46.6437 12 47.2863 12.2529 47.7601 12.7029C48.2338 13.153 48.5 13.7635 48.5 14.4V19.2H15.6579V14.4C15.6579 13.7635 15.9241 13.153 16.3978 12.7029C16.8716 12.2529 17.5142 12 18.1842 12H35.8684V9.528L20.7105 5.0256L5.55263 9.528V27.2976C5.55227 28.7669 5.90695 30.2168 6.58934 31.5354C7.27174 32.854 8.26364 34.0062 9.48863 34.9032L9.9661 35.2296L20.7105 42.1896L30.2651 36H18.1842C17.5142 36 16.8716 35.7471 16.3978 35.2971C15.9241 34.847 15.6579 34.2365 15.6579 33.6V24H48.5V33.6C48.5 34.2365 48.2338 34.847 47.7601 35.2971C47.2863 35.7471 46.6437 36 45.9737 36L37.8389 36.0024C36.8613 37.2264 35.6739 38.3064 34.3021 39.1944L20.7105 48L7.11895 39.1968C5.079 37.8755 3.40969 36.1008 2.25614 34.027C1.1026 31.9532 0.499744 29.6431 0.5 27.2976V7.764C0.500305 7.25266 0.672514 6.75478 0.991526 6.34292C1.31054 5.93107 1.75968 5.62678 2.27347 5.4744L20.7105 0Z" fill="#2B508A"/>
</svg>
