<svg width="74" height="58" viewBox="0 0 74 58" fill="none" xmlns="http://www.w3.org/2000/svg">
<path d="M17.373 4.42638L15.1937 6.63645C12.327 9.53528 10.0536 12.9801 8.50415 16.7729C6.9547 20.5657 6.15976 24.6317 6.16502 28.7371C6.15894 32.8436 6.95349 36.9107 8.50297 40.7047C10.0524 44.4986 12.3263 47.9444 15.1937 50.844L17.373 53.0541L13.0143 57.4742L10.835 55.2642C7.39547 51.7845 4.66767 47.6501 2.80828 43.0983C0.948888 38.5466 -0.00546788 33.6671 2.35643e-05 28.7402C2.35643e-05 18.3807 4.1429 8.99969 10.835 2.21319L13.0143 0.0031265L17.373 4.42638ZM60.9626 0.0031265L63.1419 2.21319C66.5824 5.69292 69.311 9.82773 71.1709 14.3801C73.0308 18.9324 73.9855 23.8126 73.98 28.7402C73.98 39.0966 69.8371 48.4808 63.1481 55.2642L60.9657 57.4742L56.607 53.0541L58.7863 50.844C61.6539 47.9446 63.9278 44.4987 65.4773 40.7048C67.0268 36.9108 67.8212 32.8436 67.815 28.7371C67.8204 24.6309 67.0253 20.5642 65.4753 16.7708C63.9253 12.9774 61.651 9.53216 58.7833 6.63332L56.6039 4.42326L60.9626 0V0.0031265ZM26.0903 13.2666L23.911 15.4767C22.191 17.2159 20.827 19.2829 19.8975 21.5586C18.9681 23.8343 18.4914 26.2739 18.495 28.7371C18.495 33.92 20.5603 38.6027 23.911 42.0006L26.0903 44.2107L21.7316 48.6308L19.5523 46.4208C17.2594 44.1007 15.4411 41.3442 14.2017 38.3096C12.9623 35.2749 12.3262 32.0218 12.33 28.7371C12.33 21.8349 15.095 15.5767 19.5523 11.0566L21.7316 8.84339L26.0903 13.2666ZM52.2453 8.84339L54.4246 11.0566C56.7177 13.376 58.5364 16.1319 59.7763 19.166C61.0163 22.2001 61.653 25.4527 61.65 28.7371C61.65 35.6455 58.885 41.8975 54.4246 46.4208L52.2453 48.6308L47.8866 44.2107L50.066 42.0006C51.7869 40.2613 53.1516 38.194 54.0816 35.9177C55.0116 33.6414 55.4886 31.201 55.485 28.7371C55.4883 26.2737 55.0113 23.8339 54.0813 21.5581C53.1513 19.2824 51.7866 17.2156 50.066 15.4767L47.8866 13.2666L52.2453 8.84339ZM36.99 22.4852C35.3549 22.4852 33.7869 23.1438 32.6307 24.3163C31.4745 25.4888 30.825 27.079 30.825 28.7371C30.825 30.3952 31.4745 31.9854 32.6307 33.1579C33.7869 34.3304 35.3549 34.9891 36.99 34.9891C38.6251 34.9891 40.1931 34.3304 41.3493 33.1579C42.5055 31.9854 43.155 30.3952 43.155 28.7371C43.155 27.079 42.5055 25.4888 41.3493 24.3163C40.1931 23.1438 38.6251 22.4852 36.99 22.4852ZM24.66 28.7371C24.6606 26.3986 25.3078 24.1071 26.5282 22.1229C27.7486 20.1387 29.4932 18.5414 31.5639 17.5122C33.6346 16.4831 35.9484 16.0635 38.2425 16.3011C40.5365 16.5386 42.7189 17.4238 44.5418 18.8561C46.3647 20.2883 47.7549 22.2103 48.5547 24.4037C49.3545 26.597 49.5317 28.9739 49.0662 31.2643C48.6007 33.5547 47.5112 35.6668 45.9214 37.3607C44.3316 39.0546 42.3053 40.2625 40.0725 40.8471V56.1801H33.9075V40.8471C31.2608 40.153 28.9164 38.587 27.2426 36.3951C25.5688 34.2031 24.6604 31.5094 24.66 28.7371Z" fill="#E08882"/>
</svg>
