<svg width="77" height="77" viewBox="0 0 77 77" fill="none" xmlns="http://www.w3.org/2000/svg">
<path d="M75.4089 58.166V69.5167C75.4089 71.0219 74.811 72.4655 73.7466 73.5298C72.6823 74.5942 71.2387 75.1921 69.7335 75.1921H58.3828M58.3828 1.41211H69.7335C71.2387 1.41211 72.6823 2.01005 73.7466 3.07439C74.811 4.13873 75.4089 5.58229 75.4089 7.08749V18.4383M1.62891 18.4383V7.08749C1.62891 5.58229 2.22685 4.13873 3.29119 3.07439C4.35553 2.01005 5.79909 1.41211 7.30429 1.41211H18.6551M18.6551 75.1921H7.30429C5.79909 75.1921 4.35553 74.5942 3.29119 73.5298C2.22685 72.4655 1.62891 71.0219 1.62891 69.5167V58.166M64.0581 38.3021C64.0581 38.3021 52.7074 55.3283 38.5189 55.3283C24.3304 55.3283 12.9797 38.3021 12.9797 38.3021C12.9797 38.3021 24.3304 21.276 38.5189 21.276C52.7074 21.276 64.0581 38.3021 64.0581 38.3021Z" stroke="#E08882" stroke-opacity="0.84" stroke-width="2.6919" stroke-linecap="round" stroke-linejoin="round"/>
<path d="M38.5213 41.1397C40.0885 41.1397 41.359 39.8693 41.359 38.302C41.359 36.7348 40.0885 35.4644 38.5213 35.4644C36.9541 35.4644 35.6836 36.7348 35.6836 38.302C35.6836 39.8693 36.9541 41.1397 38.5213 41.1397Z" stroke="#E08882" stroke-opacity="0.84" stroke-width="2.6919" stroke-linecap="round" stroke-linejoin="round"/>
</svg>
