<svg width="74" height="74" viewBox="0 0 74 74" fill="none" xmlns="http://www.w3.org/2000/svg">
<path d="M32.2796 18.4455V23.0568H18.4455V18.4455H32.2796ZM18.4455 32.2796V27.6682H32.2796V32.2796H18.4455ZM18.4455 41.5023V36.891H27.6682V41.5023H18.4455ZM13.8341 18.4455V23.0568H9.22274V18.4455H13.8341ZM13.8341 27.6682V32.2796H9.22274V27.6682H13.8341ZM9.22274 41.5023V36.891H13.8341V41.5023H9.22274ZM4.61137 4.61137V69.1705H27.6682V73.7819H0V0H40.1693L59.9478 19.7785V27.6682H55.3364V23.0568H36.891V4.61137H4.61137ZM41.5023 7.88976V18.4455H52.058L41.5023 7.88976ZM64.5592 36.891H73.7819V73.7819H32.2796V36.891H41.5023V32.2796H46.1137V36.891H59.9478V32.2796H64.5592V36.891ZM69.1705 69.1705V50.7251H36.891V69.1705H69.1705ZM69.1705 46.1137V41.5023H36.891V46.1137H69.1705Z" fill="#E08882" fill-opacity="0.84"/>
</svg>
