<svg width="74" height="72" viewBox="0 0 74 72" fill="none" xmlns="http://www.w3.org/2000/svg">
<path d="M13.175 0C9.68077 0 6.32966 1.89063 3.85887 5.25597C1.38808 8.62131 0 13.1857 0 17.945V21.534H73.78V17.945C73.78 13.1857 72.3919 8.62131 69.9211 5.25597C67.4503 1.89063 64.0992 0 60.605 0H13.175ZM73.78 28.712H0V53.835C0 58.5943 1.38808 63.1587 3.85887 66.524C6.32966 69.8894 9.68077 71.78 13.175 71.78H60.605C64.0992 71.78 67.4503 69.8894 69.9211 66.524C72.3919 63.1587 73.78 58.5943 73.78 53.835V28.712ZM50.065 50.246H60.605C61.3038 50.246 61.9741 50.6241 62.4682 51.2972C62.9624 51.9703 63.24 52.8831 63.24 53.835C63.24 54.7869 62.9624 55.6997 62.4682 56.3728C61.9741 57.0459 61.3038 57.424 60.605 57.424H50.065C49.3662 57.424 48.6959 57.0459 48.2018 56.3728C47.7076 55.6997 47.43 54.7869 47.43 53.835C47.43 52.8831 47.7076 51.9703 48.2018 51.2972C48.6959 50.6241 49.3662 50.246 50.065 50.246Z" fill="#E08882"/>
</svg>
